<?xml version="1.0" standalone="no"?>
<svg xmlns="http://www.w3.org/2000/svg" viewBox="0 0 176 68" width="176" height="68"><g fill="#b43002" color="#b43002" transform="translate(68.817 0) scale(0.754717) "><svg width="50.0" height="53.0" x="0.0" y="0.0" viewBox="0 0 50 53"><path fill="currentColor" fill-rule="evenodd" d="M5.796 11.69c-1.373.039-4.05-.808-2.824-2.667.787-1.178 2.367-.896 3.363-.205.813.598 1.443 1.617 1.998 2.473a.3.3 0 0 0 .148.13l.141.21c-.935.011-1.9.059-2.826.06m30.925-.283c.856-1.482 2.908-3.649 4.904-2.964 2.041.694 2.268 2.216 1.629 3.895 1.48-1.342 3.29-2.274 5.36-2.76.244-.069.47-.025.604.176 1.091 1.55-.04 3.477-1.444 4.423-.72.485-1.53.907-2.384 1.227 1.238.548 1.96 1.668 1.765 3.126-.228 1.539-2.223 2.28-3.535 2.337-1.824.114-3.82-.399-5.074-1.824a.414.414 0 0 1-.084-.196 33.003 33.003 0 0 0-2.178 1.562 8.213 8.213 0 0 1 1.008-.165c1.425-.113 4.162-.285 4.162 1.825 0 1.939-2.452 3.307-4.105 3.592-2.095.39-4.063.232-5.943-.602a37.852 37.852 0 0 0-3.077 4.104c1.289-1.13 2.844-1.997 4.401-2.362 1.597-.341 4.106-.341 4.79 1.597.684 1.996-.741 3.82-2.68 4.447-1.425.457-2.965.798-4.447.513-1.513-.341-2.693-.72-4.145-.61a48.28 48.28 0 0 0-2.144 4.774c1.253-1.322 2.925-2.258 4.727-2.516 1.71-.227 3.99-.057 4.732 1.825 2.053 5.302-6.899 4.39-9.407 3.706-.172-.057-.172-.4 0-.342 1.653.228 3.42.285 5.074.114 1.14-.114 4.675-1.14 3.25-3.022-2.338-3.193-7.07.172-8.838 2.167a.308.308 0 0 1-.286.113c-1.39 4.077-2.325 8.378-2.884 12.72 0 .115-.171.115-.171 0 .252-6.234 1.567-12.726 4.09-18.584-2.106-3.21-5.05-11.192.813-12.432 3.286-.687 2.628 4.024 1.614 7.656a36.965 36.965 0 0 1 2.4-3.564c-2.363-4.412-.706-9.716 3.512-12.36.171-.113.514-.056.685.114 2.022 2.511 1.51 5.194.127 7.58a29.494 29.494 0 0 1 3.4-2.584c1.147-.97 2.332-1.856 3.257-3 .57-.684 1.14-1.482 1.54-2.28.342-.684 1.425-3.478-.741-3.307-3.82.342-5.018 5.36-4.334 8.381 0 .114-.17.228-.17.114-1.027-2.11-.97-4.561.227-6.614zm-19.556 27.31c-.114-.398.513-.57.627-.17 1.426 4.276 2.053 9.236 1.255 13.684-.57-4.562-1.027-9.01-1.882-13.513zm-9.864-5.245c.628-2.451 3.478-2.166 5.075-.969 2.11 1.54 3.592 3.82 3.706 6.442 0 .343-.57.4-.627.058-.4-1.939-1.14-3.82-2.794-5.074-.855-.628-3.136-2.338-3.991-.4-.513 1.14-.171 2.395.513 3.364 1.938 2.737 5.36 3.307 8.267 4.39.171.058.171.286-.057.343-4.333.399-11.574-2.566-10.092-8.154zm10.434-4.162c1.768-.912 4.048.627 4.619 2.338.912 2.68.228 5.93-.457 8.61-.026-.22-.043-.443-.057-.664-.123.22-.453.343-.684.15-1.767-1.54-4.618-3.25-5.131-5.758-.4-1.825-.114-3.764 1.71-4.676zm1.825 1.255c-1.426-.343-2.395.513-2.395 1.824 0 3.124 3.168 4.438 4.657 6.816-.06-1.604.102-3.23-.039-4.82-.114-1.426-.513-3.421-2.223-3.82zm7.184-5.53c0-.628-.114-5.076-2.737-2.11-2.697 3.027-.826 7.167.538 10.425a43.06 43.06 0 0 1 1.107-2.32c.318-.978.563-1.963.75-2.974.17-1.026.342-1.995.342-3.022zm7.64 2.793a7.788 7.788 0 0 0-3.193 1.026c-1.492.77-2.659 1.826-3.81 2.959 1.812-.124 4.285.718 5.577.405a6.214 6.214 0 0 0 2.053-.684c1.71-.798 1.97-3.537-.627-3.706zM.913.369c1.026-.57 2.566-.513 3.42.4C5.589 2.023 5.532 3.79 5.418 5.444c-.057.114-.17.114-.17.057-.172-1.254-.343-3.022-1.312-3.934C3.308.94 1.255.37 1.027 1.68.742 3.163 2.623 4.076 3.65 4.703c.822.457 1.683.905 2.549 1.333a4.226 4.226 0 0 1 .133-2.21C6.73 2.57 8.385 1.658 9.696 2.114c4.618 1.653 2.85 8.153 1.71 11.63 0 .115-.17.058-.17 0 .398-2.337.911-5.416.227-7.754-.285-1.025-.855-2.45-2.11-2.622-1.653.342-2.28 1.197-1.938 2.566.4 1.14 1.026 2.052 1.71 3.022.298.395-.178.832-.57.68 1.69 2.396 3.11 5.033 4.334 7.587.231.485.459 1 .678 1.538-.514-1.867-.32-3.982.52-5.757.683-1.426 1.823-3.364 3.648-2.737 1.483.57 1.311 2.965 1.026 4.105-.627 2.736-2.052 4.904-3.706 7.07-.057.057-.113 0-.057-.057 1.255-2.451 3.935-6.443 2.851-9.351-.798-2.166-2.395.4-2.622.913-.4.684-.742 1.482-.855 2.28-.23 1.426-.115 2.794.17 4.22.099.393-.355.53-.59.304 1.026 2.764 1.797 5.985 1.791 8.879 1.655-1.466 4.158-3 4.102-5.535 0-.455-.115-2.794-1.54-1.824-.741.456-1.311 1.14-1.54 1.996-.284 1.025-.341 2.052-.398 3.079-.057.227-.343.227-.343 0-.057-1.654-.114-3.764 1.14-5.075.685-.742 2.11-1.825 2.91-.627 2.28 3.421-1.028 7.07-3.878 8.723-.162.116-.34.078-.47-.027-.021.42-.054.834-.113 1.234l-.081-1.565c0 .057-.037-.31-.06-.488-.024-.195-.059-.385-.086-.578-.107.054-.246.025-.33-.115-1.084-1.653-2.338-2.965-3.764-4.276-1.026-.912-3.364-1.996-3.706.17-.228 1.369.456 2.624 1.426 3.479 1.368 1.254 2.736 1.596 4.333 2.394.684.342 1.204.585 1.598 1.144.059.077.006.115-.053.082-.753-.647-3.598-.827-4.624-1.34-1.14-.57-1.996-1.31-2.794-2.338-1.026-1.31-1.596-3.478-.399-4.903 2.768-3.238 6.778 1.608 8.134 4.548-.583-3.244-1.638-6.248-3.03-9.098.075.295.143.594.199.9.056.229-.343.458-.457.172-.513-1.083-1.026-2.452-1.881-3.307-.513-.513-1.255-1.083-2.053-1.026-.798.057-2.223.799-1.824 1.881.456 1.312 2.052 2.167 3.193 2.794a62.838 62.838 0 0 0 2.737 1.482c.062.033.014.07-.058.058-2.11-.343-9.18-3.022-6.328-6.215a3.132 3.132 0 0 1 4.048-.513c.253.175.476.366.684.564a54.224 54.224 0 0 0-1.509-2.396c-1.911.33-4.185.983-6.029-.128-1.108-.68-1.733-2.158-.94-3.28.765-1.082 2.216-1.75 3.5-1.36-.228-.291-.46-.581-.693-.871-1.54-.704-3.087-1.55-4.138-2.77C-.17 2.765-.342 1.055.913.37zm32.559 14.917c-.628-1.654-1.198-.742-1.996.113a9.937 9.937 0 0 0-2.143 9.813c.4-.519.812-1.03 1.241-1.523 1.07-1.459 2.338-3.08 2.84-4.811.343-1.14.514-2.452.058-3.592zm6.67 7.07c.229-1.654-3.99-.457-4.504-.286-1.166.432-2.104.996-3.06 1.69-.31.324-.611.654-.906.99 1.323.398 2.764.538 4.137.228 1.312-.285 4.105-1.027 4.333-2.623zm3.97-6.493a34.088 34.088 0 0 0-4.98 2.55c1.711 1.29 4.288 2.436 6.313 1.03 1.847-1.304.433-3.431-1.333-3.58zm4.519-4.887c-.116-.894-3.618.98-4.075 1.238-.683.404-1.307.844-1.892 1.34-.283.484-.617.967-.982 1.436 1.44-.177 2.817-.327 4.145-.959 1.027-.497 3.046-1.613 2.804-3.055z"></path></svg></g><path fill="#ffffff" fill-rule="nonzero" d="M1.66 19.37Q1.01 19.37 0.50 19.02Q0 18.67 0 18.17L0 18.17Q0 17.81 0.34 16.85L0.34 16.85Q2.16 11.18 3.36 7.82Q4.56 4.46 6.24 0.65L6.24 0.65Q4.92 0.91 3.46 1.73L3.46 1.73Q2.98 1.97 2.90 1.97L2.90 1.97Q2.74 1.97 2.45 1.73Q2.16 1.49 2.16 1.32L2.16 1.32Q5.23 0 7.46 0L7.46 0Q8.95 0 10.38 0.54Q11.81 1.08 12.72 2.12Q13.63 3.17 13.63 4.63L13.63 4.63Q13.63 6.89 11.86 8.12Q10.08 9.36 7.99 9.77Q5.90 10.18 4.49 10.18L4.49 10.18L4.25 10.18Q4.13 10.58 2.81 15.31L2.81 15.31Q1.97 18.36 1.66 19.37L1.66 19.37ZM4.34 9.79Q6.24 9.70 7.99 9.05Q9.74 8.40 10.88 7.18Q12.02 5.95 12.02 4.22L12.02 4.22Q12.02 2.40 10.78 1.46Q9.53 0.53 7.68 0.50L7.68 0.50Q6.22 3.41 4.34 9.79L4.34 9.79ZM11.54 18.41Q10.75 18.41 10.26 17.89Q9.77 17.38 9.77 16.42L9.77 16.42Q9.77 15 10.79 13.25Q11.81 11.50 13.37 10.27Q14.93 9.05 16.42 9.05L16.42 9.05Q17.35 9.05 17.98 9.55Q18.60 10.06 18.60 10.85L18.60 10.85Q18.60 11.40 18.29 11.64Q17.98 11.88 17.42 11.88L17.42 11.88Q17.54 11.45 17.54 11.04L17.54 11.04Q17.54 10.44 17.26 10.07Q16.97 9.70 16.37 9.70L16.37 9.70Q15.31 9.70 14.15 10.87Q12.98 12.05 12.20 13.68Q11.42 15.31 11.42 16.49L11.42 16.49Q11.42 17.42 12.07 17.42L12.07 17.42Q13.03 17.42 14.33 15.90Q15.62 14.38 17.11 12.19L17.11 12.19Q17.42 12.24 17.75 12.40Q18.07 12.55 18.07 12.79L18.07 12.79Q18.07 12.98 17.84 13.40Q17.62 13.82 17.57 13.90L17.57 13.90Q17.16 14.59 16.92 15.13Q16.68 15.67 16.68 16.13L16.68 16.13Q16.68 16.54 16.88 16.86Q17.09 17.18 17.50 17.18L17.50 17.18Q18.19 17.18 19.25 16.19Q20.30 15.19 21.34 13.39L21.34 13.39L21.58 13.63Q21.07 14.90 20.28 15.90Q19.49 16.90 18.58 17.45Q17.66 18 16.82 18L16.82 18Q15.98 18 15.54 17.51Q15.10 17.02 15.10 16.32L15.10 16.32Q15.10 16.01 15.17 15.62L15.17 15.62Q14.09 17.06 13.24 17.74Q12.38 18.41 11.54 18.41L11.54 18.41ZM23.38 18.50Q21.82 18.50 21.10 17.57Q20.38 16.63 20.38 15.36L20.38 15.36Q20.38 14.40 20.71 14.00Q21.05 13.61 21.44 13.44Q21.84 13.27 21.91 13.20L21.91 13.20Q23.45 11.52 24.29 9.72L24.29 9.72L24.29 9.43Q24.29 8.62 24.56 8.21Q24.84 7.80 25.22 7.80L25.22 7.80Q25.42 7.80 25.51 7.88Q25.61 7.97 25.61 8.11L25.61 8.11Q25.61 8.21 25.54 8.51Q25.46 8.81 25.46 9.17L25.46 9.17Q25.46 9.65 25.60 10.19Q25.73 10.73 26.02 11.59L26.02 11.59Q26.35 12.62 26.53 13.39Q26.71 14.16 26.71 14.95L26.71 14.95Q26.71 15.58 26.57 16.13L26.57 16.13Q27.43 15.98 28.18 15.35Q28.92 14.71 29.59 13.42L29.59 13.42L29.81 13.66Q29.38 14.90 28.49 15.62Q27.60 16.34 26.45 16.51L26.45 16.51Q26.09 17.50 25.27 18Q24.46 18.50 23.38 18.50L23.38 18.50ZM25.06 16.10Q25.15 15.48 25.15 14.98L25.15 14.98Q25.15 14.26 25.03 13.54Q24.91 12.82 24.67 11.88L24.67 11.88Q24.46 10.92 24.41 10.63L24.41 10.63Q23.18 12.65 22.08 13.75L22.08 13.75Q22.46 14.59 23.24 15.24Q24.02 15.89 25.06 16.10L25.06 16.10ZM23.42 17.66Q24.53 17.66 24.94 16.49L24.94 16.49Q23.98 16.30 23.18 15.73Q22.39 15.17 21.98 14.50L21.98 14.50Q21.46 14.52 21.46 15.34L21.46 15.34Q21.46 16.25 22.00 16.96Q22.54 17.66 23.42 17.66L23.42 17.66ZM31.18 18.38Q29.04 18.38 29.04 16.01L29.04 16.01Q29.04 14.98 29.41 13.45Q29.78 11.93 30.43 10.22L30.43 10.22Q29.86 10.13 29.57 10.03L29.57 10.03L29.57 9.60Q30.43 9.70 30.62 9.70L30.62 9.70Q31.68 6.96 32.89 4.96Q34.10 2.95 34.80 2.95L34.80 2.95Q34.99 2.95 35.15 3.10Q35.30 3.24 35.30 3.48L35.30 3.48Q35.30 3.79 35.00 4.39Q34.70 4.99 33.98 6.24L33.98 6.24Q33.86 6.48 33.24 7.57Q32.62 8.66 32.11 9.77L32.11 9.77L33 9.77Q34.99 9.77 36.43 9.62L36.43 9.62L36.43 10.06Q33.82 10.34 32.21 10.34L32.21 10.34L31.85 10.34Q30.53 13.37 30.53 15.58L30.53 15.58Q30.53 16.61 30.84 17.05Q31.15 17.50 31.87 17.50L31.87 17.50Q33.10 17.50 34.30 16.40Q35.50 15.31 36.43 13.39L36.43 13.39L36.74 13.63Q35.86 15.72 34.34 17.05Q32.83 18.38 31.18 18.38L31.18 18.38ZM38.57 18.34Q37.15 18.34 36.40 17.56Q35.64 16.78 35.64 15.55L35.64 15.55Q35.64 14.14 36.58 12.50Q37.51 10.87 38.94 9.76Q40.37 8.64 41.74 8.64L41.74 8.64Q43.22 8.64 43.22 10.10L43.22 10.10Q43.22 11.28 42.34 12.30Q41.45 13.32 40.06 13.97Q38.66 14.62 37.27 14.76L37.27 14.76Q37.18 15.17 37.18 15.62L37.18 15.62Q37.18 16.49 37.61 17.06Q38.04 17.64 39.07 17.64L39.07 17.64Q40.54 17.64 42.02 16.42Q43.51 15.19 44.45 13.39L44.45 13.39L44.74 13.61Q43.78 15.74 42.07 17.04Q40.37 18.34 38.57 18.34L38.57 18.34ZM37.39 14.30Q38.40 13.94 39.50 13.30Q40.61 12.65 41.39 11.77Q42.17 10.90 42.17 9.94L42.17 9.94Q42.17 9.65 42.06 9.52Q41.95 9.38 41.66 9.38L41.66 9.38Q40.92 9.38 40.04 10.13Q39.17 10.87 38.44 12.02Q37.70 13.18 37.39 14.30L37.39 14.30ZM45.96 18Q44.98 18 44.51 17.33Q44.04 16.66 44.04 15.53L44.04 15.53Q44.04 13.37 45.53 9.66Q47.02 5.95 48.85 2.98Q50.69 0 51.50 0L51.50 0Q51.84 0 52.07 0.59Q52.30 1.18 52.30 1.78L52.30 1.78Q52.30 2.88 51.40 5.03Q50.50 7.18 49.03 9.38Q47.57 11.59 45.91 12.96L45.91 12.96Q45.60 14.35 45.60 15.38L45.60 15.38Q45.60 17.23 46.66 17.23L46.66 17.23Q47.54 17.23 48.47 16.10Q49.39 14.98 50.11 13.39L50.11 13.39L50.47 13.58Q48.41 18 45.96 18L45.96 18ZM46.13 12.14Q47.45 10.82 48.71 8.82Q49.97 6.82 50.76 4.98Q51.55 3.14 51.55 2.33L51.55 2.33Q51.55 1.94 51.38 1.94L51.38 1.94Q51.05 1.94 50.00 3.59Q48.96 5.23 47.86 7.61Q46.75 9.98 46.13 12.14L46.13 12.14ZM52.22 18.34Q50.81 18.34 50.05 17.56Q49.30 16.78 49.30 15.55L49.30 15.55Q49.30 14.14 50.23 12.50Q51.17 10.87 52.60 9.76Q54.02 8.64 55.39 8.64L55.39 8.64Q56.88 8.64 56.88 10.10L56.88 10.10Q56.88 11.28 55.99 12.30Q55.10 13.32 53.71 13.97Q52.32 14.62 50.93 14.76L50.93 14.76Q50.83 15.17 50.83 15.62L50.83 15.62Q50.83 16.49 51.26 17.06Q51.70 17.64 52.73 17.64L52.73 17.64Q54.19 17.64 55.68 16.42Q57.17 15.19 58.10 13.39L58.10 13.39L58.39 13.61Q57.43 15.74 55.73 17.04Q54.02 18.34 52.22 18.34L52.22 18.34ZM51.05 14.30Q52.06 13.94 53.16 13.30Q54.26 12.65 55.04 11.77Q55.82 10.90 55.82 9.94L55.82 9.94Q55.82 9.65 55.72 9.52Q55.61 9.38 55.32 9.38L55.32 9.38Q54.58 9.38 53.70 10.13Q52.82 10.87 52.09 12.02Q51.36 13.18 51.05 14.30L51.05 14.30ZM61.78 17.90Q60.96 17.90 60.49 17.47Q60.02 17.04 60.02 16.34L60.02 16.34Q60.02 15.53 60.72 13.99L60.72 13.99Q61.03 13.20 61.19 12.73Q61.34 12.26 61.34 11.86L61.34 11.86Q61.34 11.26 61.07 10.91Q60.79 10.56 60.46 10.33Q60.12 10.10 60.00 10.03L60.00 10.03Q59.47 11.38 58.87 12.66Q58.27 13.94 57.86 14.64L57.86 14.64L57.65 14.23Q58.80 12 59.59 9.67L59.59 9.67Q59.35 9.43 59.35 9.10L59.35 9.10Q59.35 8.66 59.53 8.28Q59.71 7.90 59.96 7.68Q60.22 7.46 60.36 7.46L60.36 7.46Q60.70 7.46 60.70 8.04L60.70 8.04Q60.70 8.14 60.58 8.47Q60.46 8.81 60.43 8.93L60.43 8.93Q60.43 9.17 60.64 9.37Q60.84 9.58 61.30 9.89L61.30 9.89Q62.04 10.42 62.46 10.93Q62.88 11.45 62.88 12.26L62.88 12.26Q62.88 12.79 62.71 13.31Q62.54 13.82 62.21 14.66L62.21 14.66Q61.68 15.82 61.68 16.32L61.68 16.32Q61.68 17.04 62.40 17.04L62.40 17.04Q63.12 17.04 63.95 16.46Q64.78 15.89 65.47 15.04Q66.17 14.18 66.48 13.46L66.48 13.46L66.79 13.70Q66.05 15.36 64.63 16.63Q63.22 17.90 61.78 17.90L61.78 17.90ZM67.70 17.90Q66.82 17.90 66.34 17.34Q65.86 16.78 65.86 15.89L65.86 15.89Q65.86 14.95 66.40 13.30Q66.94 11.64 67.74 10.39Q68.54 9.14 69.31 9.14L69.31 9.14Q69.53 9.14 69.68 9.29Q69.84 9.43 69.84 9.67L69.84 9.67Q69.84 10.01 69.07 11.28L69.07 11.28Q68.28 12.60 67.81 13.64Q67.34 14.69 67.34 15.62L67.34 15.62Q67.34 16.46 67.62 16.76Q67.90 17.06 68.52 17.06L68.52 17.06Q70.39 17.06 72.22 13.39L72.22 13.39L72.43 13.63Q71.76 15.65 70.45 16.78Q69.14 17.90 67.70 17.90L67.70 17.90ZM70.25 7.42Q70.08 7.34 70.00 7.14Q69.91 6.94 69.91 6.79L69.91 6.79Q69.91 6.50 70.36 5.77Q70.80 5.04 71.39 4.46Q71.98 3.89 72.41 3.89L72.41 3.89Q72.86 3.89 72.94 4.63L72.94 4.63Q71.16 6.17 70.25 7.42L70.25 7.42ZM72.91 18.41Q72.12 18.41 71.63 17.89Q71.14 17.38 71.14 16.42L71.14 16.42Q71.14 15 72.16 13.25Q73.18 11.50 74.74 10.27Q76.30 9.05 77.78 9.05L77.78 9.05Q78.72 9.05 79.34 9.55Q79.97 10.06 79.97 10.85L79.97 10.85Q79.97 11.40 79.66 11.64Q79.34 11.88 78.79 11.88L78.79 11.88Q78.91 11.45 78.91 11.04L78.91 11.04Q78.91 10.44 78.62 10.07Q78.34 9.70 77.74 9.70L77.74 9.70Q76.68 9.70 75.52 10.87Q74.35 12.05 73.57 13.68Q72.79 15.31 72.79 16.49L72.79 16.49Q72.79 17.42 73.44 17.42L73.44 17.42Q74.40 17.42 75.70 15.90Q76.99 14.38 78.48 12.19L78.48 12.19Q78.79 12.24 79.12 12.40Q79.44 12.55 79.44 12.79L79.44 12.79Q79.44 12.98 79.21 13.40Q78.98 13.82 78.94 13.90L78.94 13.90Q78.53 14.59 78.29 15.13Q78.05 15.67 78.05 16.13L78.05 16.13Q78.05 16.54 78.25 16.86Q78.46 17.18 78.86 17.18L78.86 17.18Q79.56 17.18 80.62 16.19Q81.67 15.19 82.70 13.39L82.70 13.39L82.94 13.63Q82.44 14.90 81.65 15.90Q80.86 16.90 79.94 17.45Q79.03 18 78.19 18L78.19 18Q77.35 18 76.91 17.51Q76.46 17.02 76.46 16.32L76.46 16.32Q76.46 16.01 76.54 15.62L76.54 15.62Q75.46 17.06 74.60 17.74Q73.75 18.41 72.91 18.41L72.91 18.41ZM92.38 19.37Q91.51 19.37 90.88 19.14Q90.24 18.91 89.81 18.29L89.81 18.29Q90.43 15.29 91.81 10.84Q93.19 6.38 93.96 4.37L93.96 4.37Q94.25 3.60 94.73 2.86Q95.21 2.11 95.83 2.11L95.83 2.11Q96.17 2.11 96.50 2.35L96.50 2.35Q95.06 5.69 93.59 10.37Q92.11 15.05 91.32 18.65L91.32 18.65Q91.90 18.74 92.35 18.74L92.35 18.74Q94.82 18.74 97.08 16.90Q99.34 15.05 100.73 12.16Q102.12 9.26 102.12 6.31L102.12 6.31Q102.12 3.50 100.80 2.08Q99.48 0.65 97.20 0.65L97.20 0.65Q95.66 0.65 94.40 1.26Q93.14 1.87 92.42 2.95Q91.70 4.03 91.70 5.33L91.70 5.33Q91.70 5.86 91.82 6.22L91.82 6.22Q91.08 6.22 90.73 5.84Q90.38 5.47 90.38 4.87L90.38 4.87Q90.38 3.74 91.42 2.62Q92.45 1.49 94.19 0.74Q95.93 0 97.92 0L97.92 0Q100.97 0 102.43 1.80Q103.90 3.60 103.90 6.58L103.90 6.58Q103.90 9.94 102.20 12.89Q100.51 15.84 97.84 17.60Q95.16 19.37 92.38 19.37L92.38 19.37ZM105.82 18Q105.02 18 104.52 17.29Q104.02 16.58 104.02 15.58L104.02 15.58Q104.02 14.69 104.39 13.38Q104.76 12.07 105.28 11.10Q105.79 10.13 106.13 10.13L106.13 10.13Q106.27 10.13 106.55 10.27Q106.82 10.42 107.02 10.61L107.02 10.61Q106.51 11.40 105.96 12.88Q105.41 14.35 105.41 15.43L105.41 15.43Q105.41 15.98 105.59 16.51Q105.77 17.04 106.27 17.04L106.27 17.04Q107.11 17.04 108.11 15.49Q109.10 13.94 110.26 11.57L110.26 11.57L110.64 10.78Q111.79 10.99 111.79 11.40L111.79 11.40Q111.79 11.45 111.68 11.72Q111.58 12 111.48 12.22L111.48 12.22Q110.93 13.44 110.56 14.51Q110.18 15.58 110.18 16.32L110.18 16.32Q110.18 17.28 110.98 17.28L110.98 17.28Q111.50 17.28 112.22 16.81Q112.94 16.34 113.69 15.46Q114.43 14.57 114.98 13.39L114.98 13.39L115.30 13.61Q114.79 14.88 113.99 15.88Q113.18 16.87 112.25 17.44Q111.31 18 110.47 18L110.47 18Q108.79 18 108.79 16.22L108.79 16.22Q108.79 15.74 108.96 15.02L108.96 15.02Q108.19 16.39 107.42 17.20Q106.66 18 105.82 18L105.82 18ZM116.52 18Q115.54 18 115.07 17.33Q114.60 16.66 114.60 15.53L114.60 15.53Q114.60 13.37 116.09 9.66Q117.58 5.95 119.41 2.98Q121.25 0 122.06 0L122.06 0Q122.40 0 122.63 0.59Q122.86 1.18 122.86 1.78L122.86 1.78Q122.86 2.88 121.96 5.03Q121.06 7.18 119.59 9.38Q118.13 11.59 116.47 12.96L116.47 12.96Q116.16 14.35 116.16 15.38L116.16 15.38Q116.16 17.23 117.22 17.23L117.22 17.23Q118.10 17.23 119.03 16.10Q119.95 14.98 120.67 13.39L120.67 13.39L121.03 13.58Q118.97 18 116.52 18L116.52 18ZM116.69 12.14Q118.01 10.82 119.27 8.82Q120.53 6.82 121.32 4.98Q122.11 3.14 122.11 2.33L122.11 2.33Q122.11 1.94 121.94 1.94L121.94 1.94Q121.61 1.94 120.56 3.59Q119.52 5.23 118.42 7.61Q117.31 9.98 116.69 12.14L116.69 12.14ZM122.76 18.62Q121.56 18.62 120.82 17.83Q120.07 17.04 120.07 15.55L120.07 15.55Q120.07 13.99 120.86 12.50Q121.66 11.02 122.89 10.09Q124.13 9.17 125.33 9.17L125.33 9.17Q126.24 9.17 126.64 9.68Q127.03 10.20 127.03 10.94L127.03 10.94Q127.03 11.66 126.71 12.18Q126.38 12.70 125.83 12.70L125.83 12.70Q125.42 12.70 125.14 12.34L125.14 12.34Q125.50 12.17 125.76 11.58Q126.02 10.99 126.02 10.44L126.02 10.44Q126.02 10.13 125.90 9.98Q125.78 9.84 125.50 9.84L125.50 9.84Q124.68 9.84 123.76 10.81Q122.83 11.78 122.20 13.18Q121.56 14.57 121.56 15.72L121.56 15.72Q121.56 16.58 121.97 17.15Q122.38 17.71 123.31 17.71L123.31 17.71Q124.78 17.71 126.20 16.51Q127.63 15.31 128.40 13.37L128.40 13.37L128.71 13.61Q128.16 15.05 127.20 16.19Q126.24 17.33 125.08 17.98Q123.91 18.62 122.76 18.62L122.76 18.62ZM130.54 18.34Q129.12 18.34 128.36 17.56Q127.61 16.78 127.61 15.55L127.61 15.55Q127.61 14.14 128.54 12.50Q129.48 10.87 130.91 9.76Q132.34 8.64 133.70 8.64L133.70 8.64Q135.19 8.64 135.19 10.10L135.19 10.10Q135.19 11.28 134.30 12.30Q133.42 13.32 132.02 13.97Q130.63 14.62 129.24 14.76L129.24 14.76Q129.14 15.17 129.14 15.62L129.14 15.62Q129.14 16.49 129.58 17.06Q130.01 17.64 131.04 17.64L131.04 17.64Q132.50 17.64 133.99 16.42Q135.48 15.19 136.42 13.39L136.42 13.39L136.70 13.61Q135.74 15.74 134.04 17.04Q132.34 18.34 130.54 18.34L130.54 18.34ZM129.36 14.30Q130.37 13.94 131.47 13.30Q132.58 12.65 133.36 11.77Q134.14 10.90 134.14 9.94L134.14 9.94Q134.14 9.65 134.03 9.52Q133.92 9.38 133.63 9.38L133.63 9.38Q132.89 9.38 132.01 10.13Q131.14 10.87 130.40 12.02Q129.67 13.18 129.36 14.30L129.36 14.30ZM144.26 19.37Q143.62 19.37 143.11 19.02Q142.61 18.67 142.61 18.17L142.61 18.17Q142.61 17.81 142.94 16.85L142.94 16.85Q144.77 11.18 145.97 7.82Q147.17 4.46 148.85 0.65L148.85 0.65Q147.53 0.91 146.06 1.73L146.06 1.73Q145.58 1.97 145.51 1.97L145.51 1.97Q145.34 1.97 145.06 1.73Q144.77 1.49 144.77 1.32L144.77 1.32Q147.84 0 150.07 0L150.07 0Q151.56 0 152.99 0.54Q154.42 1.08 155.33 2.12Q156.24 3.17 156.24 4.63L156.24 4.63Q156.24 6.89 154.46 8.12Q152.69 9.36 150.60 9.77Q148.51 10.18 147.10 10.18L147.10 10.18L146.86 10.18Q146.74 10.58 145.42 15.31L145.42 15.31Q144.58 18.36 144.26 19.37L144.26 19.37ZM146.95 9.79Q148.85 9.70 150.60 9.05Q152.35 8.40 153.49 7.18Q154.63 5.95 154.63 4.22L154.63 4.22Q154.63 2.40 153.38 1.46Q152.14 0.53 150.29 0.50L150.29 0.50Q148.82 3.41 146.95 9.79L146.95 9.79ZM154.15 18.41Q153.36 18.41 152.87 17.89Q152.38 17.38 152.38 16.42L152.38 16.42Q152.38 15 153.40 13.25Q154.42 11.50 155.98 10.27Q157.54 9.05 159.02 9.05L159.02 9.05Q159.96 9.05 160.58 9.55Q161.21 10.06 161.21 10.85L161.21 10.85Q161.21 11.40 160.90 11.64Q160.58 11.88 160.03 11.88L160.03 11.88Q160.15 11.45 160.15 11.04L160.15 11.04Q160.15 10.44 159.86 10.07Q159.58 9.70 158.98 9.70L158.98 9.70Q157.92 9.70 156.76 10.87Q155.59 12.05 154.81 13.68Q154.03 15.31 154.03 16.49L154.03 16.49Q154.03 17.42 154.68 17.42L154.68 17.42Q155.64 17.42 156.94 15.90Q158.23 14.38 159.72 12.19L159.72 12.19Q160.03 12.24 160.36 12.40Q160.68 12.55 160.68 12.79L160.68 12.79Q160.68 12.98 160.45 13.40Q160.22 13.82 160.18 13.90L160.18 13.90Q159.77 14.59 159.53 15.13Q159.29 15.67 159.29 16.13L159.29 16.13Q159.29 16.54 159.49 16.86Q159.70 17.18 160.10 17.18L160.10 17.18Q160.80 17.18 161.86 16.19Q162.91 15.19 163.94 13.39L163.94 13.39L164.18 13.63Q163.68 14.90 162.89 15.90Q162.10 16.90 161.18 17.45Q160.27 18 159.43 18L159.43 18Q158.59 18 158.15 17.51Q157.70 17.02 157.70 16.32L157.70 16.32Q157.70 16.01 157.78 15.62L157.78 15.62Q156.70 17.06 155.84 17.74Q154.99 18.41 154.15 18.41L154.15 18.41ZM171.22 17.76Q170.40 17.76 169.97 17.34Q169.54 16.92 169.54 16.22L169.54 16.22Q169.54 15.91 169.64 15.49Q169.75 15.07 169.87 14.66L169.87 14.66Q170.02 14.23 170.12 13.75Q170.23 13.27 170.23 12.89L170.23 12.89Q170.23 11.71 169.27 11.71L169.27 11.71Q168.36 11.71 167.36 12.67Q166.37 13.63 165.59 14.81Q164.81 15.98 163.82 17.64L163.82 17.64Q163.42 17.64 163.08 17.51Q162.74 17.38 162.55 17.11L162.55 17.11Q162.55 16.99 162.86 16.25L162.86 16.25Q163.46 14.71 163.85 13.45Q164.23 12.19 164.26 11.21L164.26 11.21Q164.42 11.02 164.74 10.86Q165.05 10.70 165.36 10.70L165.36 10.70Q166.01 10.70 166.01 11.33L166.01 11.33Q166.01 11.69 165.79 12.59Q165.58 13.49 165.24 14.50L165.24 14.50Q166.39 12.72 167.69 11.50Q168.98 10.27 170.23 10.27L170.23 10.27Q171.12 10.27 171.56 10.91Q172.01 11.54 172.01 12.43L172.01 12.43Q172.01 12.96 171.88 13.44Q171.74 13.92 171.48 14.54L171.48 14.54Q171.26 15.07 171.14 15.46Q171.02 15.84 171.02 16.22L171.02 16.22Q171.02 17.14 171.74 17.14L171.74 17.14Q172.56 17.14 173.44 16.06Q174.31 14.98 175.10 13.39L175.10 13.39L175.37 13.70Q173.64 17.76 171.22 17.76L171.22 17.76Z" transform="translate(0, 48)"></path></svg>